Coordinates
version=1
nRows=49
nColumns=12
inDegrees=yes

Units are S.I. units (second, meters, Newtons, ...)
Angles are in degrees

endheader
time	SC_y	SC_z	SC_x	AC_y	AC_z	AC_x	GH_y	GH_z	GH_yy	EL_x	PS_y
       0.0              -49.45         -1.809          50.51           46.5           3.38          10.31          48.96          30.59          165.2          64.83          17.61
   0.03569              -49.45         -1.803          50.51           46.5           3.38          10.31          48.94          30.59          165.1          64.84          17.62
   0.07137              -49.45         -1.797           50.5           46.5           3.38           10.3          48.91          30.59          165.1          64.85          17.64
    0.1071              -49.45         -1.791           50.5           46.5           3.38           10.3          48.88          30.59          165.1          64.86          17.65
    0.1427              -49.44         -1.784          50.49          46.49           3.38           10.3          48.84          30.59          165.1          64.87          17.67
    0.1784              -49.44         -1.777          50.49          46.49           3.38           10.3          48.81          30.58          165.0          64.88          17.68
    0.2141              -49.44         -1.769          50.48          46.49           3.38          10.29          48.77          30.58          165.0          64.89           17.7
    0.2498              -49.43         -1.761          50.47          46.49           3.38          10.29          48.73          30.58          165.0           64.9          17.72
    0.2855              -49.43         -1.752          50.46          46.48           3.38          10.29          48.69          30.58          164.9          64.91          17.74
    0.3212              -49.43         -1.742          50.46          46.48           3.38          10.28          48.64          30.58          164.9          64.92          17.76
    0.3569              -49.42         -1.732          50.45          46.47           3.38          10.28          48.59          30.58          164.9          64.93          17.78
    0.3925              -49.42         -1.721          50.44          46.47           3.38          10.28          48.54          30.58          164.8          64.95          17.81
    0.4282              -49.41         -1.709          50.43          46.47           3.38          10.27          48.48          30.58          164.8          64.96          17.84
    0.4639              -49.41         -1.696          50.42          46.46           3.38          10.27          48.42          30.57          164.7          64.98          17.86
    0.4996               -49.4         -1.682          50.41          46.45           3.38          10.26          48.35          30.57          164.7           65.0           17.9
    0.5353              -49.39         -1.667          50.39          46.45           3.38          10.26          48.28          30.57          164.6          65.02          17.93
     0.571              -49.39         -1.651          50.38          46.44           3.38          10.25           48.2          30.57          164.6          65.04          17.97
    0.6067              -49.38         -1.633          50.36          46.44          3.381          10.25          48.11          30.57          164.5          65.06          18.01
    0.6423              -49.37         -1.613          50.35          46.43          3.381          10.24          48.01          30.56          164.4          65.09          18.05
     0.678              -49.36         -1.592          50.33          46.42          3.381          10.23          47.91          30.56          164.3          65.11           18.1
    0.7137              -49.35         -1.568          50.31          46.41          3.381          10.23           47.8          30.56          164.2          65.14          18.15
    0.7494              -49.34         -1.542          50.29           46.4          3.381          10.22          47.67          30.55          164.1          65.18          18.21
    0.7851              -49.33         -1.514          50.26          46.39          3.381          10.21          47.53          30.55          164.0          65.21          18.27
    0.8208              -49.31         -1.482          50.24          46.38          3.381           10.2          47.38          30.54          163.9          65.25          18.34
    0.8565               -49.3         -1.447          50.21          46.36          3.381          10.18          47.21          30.54          163.8           65.3          18.42
    0.8921              -49.28         -1.408          50.17          46.35          3.381          10.17          47.02          30.53          163.6          65.35          18.51
    0.9278              -49.26         -1.364          50.14          46.33          3.382          10.16          46.81          30.53          163.5           65.4          18.61
    0.9635              -49.24         -1.314          50.09          46.31          3.382          10.14          46.57          30.52          163.3          65.47          18.72
    0.9992              -49.22         -1.258          50.05          46.29          3.382          10.12           46.3          30.51          163.1          65.54          18.84
     1.035              -49.19         -1.195          49.99          46.26          3.382           10.1          45.99          30.51          162.8          65.62          18.99
     1.071              -49.16         -1.122          49.93          46.23          3.383          10.07          45.64           30.5          162.6          65.71          19.15
     1.106              -49.12         -1.039          49.86           46.2          3.383          10.05          45.23          30.48          162.2          65.82          19.34
     1.142              -49.08        -0.9432          49.78          46.16          3.383          10.01          44.77          30.47          161.9          65.94          19.55
     1.178              -49.03        -0.8317          49.69          46.12          3.384          9.976          44.23          30.46          161.5          66.08           19.8
     1.213              -48.98        -0.7012          49.58          46.07          3.384          9.932           43.6          30.44          161.0          66.25          20.09
     1.249              -48.91        -0.5473          49.45          46.01          3.385          9.879          42.85          30.42          160.4          66.45          20.44
     1.285              -48.83        -0.3645          49.29          45.94          3.386          9.817          41.96          30.39          159.7          66.68          20.85
      1.32              -48.74        -0.1453          49.11          45.85          3.387          9.743           40.9          30.36          158.9          66.96          21.34
     1.356              -48.63         0.1198          48.88          45.75          3.388          9.653          39.62          30.33          157.8           67.3          21.93
     1.392              -48.49         0.4438          48.61          45.62          3.389          9.543          38.05          30.28          156.6          67.72          22.66
     1.427              -48.31         0.8435          48.27          45.46          3.391          9.408          36.11          30.23          155.1          68.23          23.55
     1.463               -48.1          1.342          47.85          45.27          3.393          9.239           33.7          30.16          153.2          68.86          24.67
     1.499              -47.83           1.97          47.32          45.02          3.395          9.026          30.65          30.07          150.8          69.67          26.07
     1.534              -47.49          2.768          46.65          44.71          3.399          8.755          26.78          29.96          147.8          70.69          27.86
      1.57              -47.05           3.79          45.78           44.3          3.403          8.409          21.83          29.82          143.9          71.99          30.15
     1.606              -46.49          5.101          44.68          43.79          3.408          7.964          15.48          29.64          139.0          73.67          33.08
     1.642              -45.77          6.776          43.26          43.13          3.415          7.396          7.364          29.42          132.6          75.81          36.83
     1.677              -44.86          8.882          41.48           42.3          3.424          6.682          -2.84          29.13          124.6           78.5          41.55
     1.713              -43.76          11.45          39.32          41.29          3.434          5.812         -15.28          28.78          114.9          81.79           47.3
